<svg width="9" height="8" viewBox="0 0 9 8" fill="none" xmlns="http://www.w3.org/2000/svg">
    <path fill-rule="evenodd" clip-rule="evenodd" d="M3.44345 7.56796L7.63529 2.51797C7.86311 2.24565 7.94411 1.9308 7.86817 1.61022C7.80236 1.31878 7.60998 1.04168 7.32141 0.83146L6.61771 0.310695C6.00513 -0.143182 5.24574 -0.0954059 4.81035 0.425359L4.33953 0.994378C4.27878 1.06556 4.29397 1.17067 4.3699 1.22801C4.3699 1.22801 5.55962 2.11665 5.58493 2.13576C5.66593 2.20742 5.72669 2.30298 5.74187 2.41764C5.76719 2.64219 5.60012 2.85241 5.35205 2.88107C5.23561 2.89541 5.12423 2.86196 5.04323 2.79985L3.79277 1.87299C3.73201 1.83047 3.64089 1.83955 3.59026 1.89688L0.618507 5.48012C0.426127 5.70467 0.360313 5.99611 0.426127 6.27799L0.805823 7.81162C0.826074 7.89284 0.902013 7.95017 0.99314 7.95017L2.6638 7.93106C2.96756 7.92628 3.25107 7.79728 3.44345 7.56796ZM5.78321 7.09033H8.5074C8.77319 7.09033 8.98937 7.29434 8.98937 7.54517C8.98937 7.79647 8.77319 8 8.5074 8H5.78321C5.51742 8 5.30125 7.79647 5.30125 7.54517C5.30125 7.29434 5.51742 7.09033 5.78321 7.09033Z" fill="#605BFF"/>
</svg>