<svg style="display: none;" xmlns="http://www.w3.org/2000/svg">
    <symbol id="activity" viewBox="0 0 24 24">
        <g opacity="0.4">
            <path fill-rule="evenodd" clip-rule="evenodd" d="M17.1799 4.41C17.1799 3.08 18.2599 2 19.5899 2C20.9199 2 21.9999 3.08 21.9999 4.41C21.9999 5.74 20.9199 6.82 19.5899 6.82C18.2599 6.82 17.1799 5.74 17.1799 4.41ZM13.3298 14.7593L16.2198 11.0303L16.1798 11.0503C16.3398 10.8303 16.3698 10.5503 16.2598 10.3003C16.1508 10.0503 15.9098 9.8803 15.6508 9.8603C15.3798 9.8303 15.1108 9.9503 14.9498 10.1703L12.5308 13.3003L9.75976 11.1203C9.58976 10.9903 9.38976 10.9393 9.18976 10.9603C8.99076 10.9903 8.81076 11.0993 8.68976 11.2593L5.73076 15.1103L5.66976 15.2003C5.49976 15.5193 5.57976 15.9293 5.87976 16.1503C6.01976 16.2403 6.16976 16.3003 6.33976 16.3003C6.57076 16.3103 6.78976 16.1893 6.92976 16.0003L9.43976 12.7693L12.2898 14.9103L12.3798 14.9693C12.6998 15.1393 13.0998 15.0603 13.3298 14.7593ZM15.4498 3.7803C15.4098 4.0303 15.3898 4.2803 15.3898 4.5303C15.3898 6.7803 17.2098 8.5993 19.4498 8.5993C19.6998 8.5993 19.9398 8.5703 20.1898 8.5303V16.5993C20.1898 19.9903 18.1898 22.0003 14.7898 22.0003H7.40076C3.99976 22.0003 1.99976 19.9903 1.99976 16.5993V9.2003C1.99976 5.8003 3.99976 3.7803 7.40076 3.7803H15.4498Z" fill="#030229"/>
        </g>
    </symbol>
    <symbol id="calendar" viewBox="0 0 24 24">
        <g opacity="0.4">
            <path fill-rule="evenodd" clip-rule="evenodd" d="M16.4109 2.76862L16.4119 3.51824C19.1665 3.73414 20.9862 5.6112 20.9891 8.48975L21 16.9155C21.0039 20.054 19.0322 21.985 15.8718 21.99L8.15189 22C5.0112 22.004 3.01482 20.027 3.01087 16.8796L3.00001 8.55272C2.99606 5.65517 4.75153 3.78311 7.50618 3.53024L7.50519 2.78061C7.5042 2.34083 7.83002 2.01 8.26445 2.01C8.69887 2.009 9.02469 2.33883 9.02568 2.77861L9.02666 3.47826L14.8914 3.47027L14.8904 2.77062C14.8894 2.33084 15.2152 2.001 15.6497 2C16.0742 1.99901 16.4099 2.32884 16.4109 2.76862ZM4.52149 8.86157L19.4696 8.84158V8.49175C19.4272 6.34283 18.349 5.21539 16.4139 5.04748L16.4148 5.81709C16.4148 6.24688 16.0801 6.58771 15.6556 6.58771C15.2212 6.58871 14.8944 6.24888 14.8944 5.81909L14.8934 5.0095L9.02864 5.01749L9.02962 5.82609C9.02962 6.25687 8.70479 6.5967 8.27037 6.5967C7.83595 6.5977 7.50914 6.25887 7.50914 5.82809L7.50815 5.05847C5.58286 5.25138 4.51754 6.38281 4.5205 8.55072L4.52149 8.86157ZM15.2399 13.4043V13.4153C15.2498 13.8751 15.625 14.2239 16.0801 14.2139C16.5244 14.2029 16.8789 13.8221 16.869 13.3623C16.8483 12.9225 16.4918 12.5637 16.0485 12.5647C15.5944 12.5747 15.2389 12.9445 15.2399 13.4043ZM16.0554 17.892C15.6013 17.882 15.235 17.5032 15.234 17.0435C15.2241 16.5837 15.5884 16.2029 16.0426 16.1919H16.0525C16.5165 16.1919 16.8927 16.5707 16.8927 17.0405C16.8937 17.5102 16.5185 17.891 16.0554 17.892ZM11.1721 13.4203C11.1919 13.8801 11.568 14.2389 12.0222 14.2189C12.4665 14.1979 12.821 13.8181 12.8012 13.3583C12.7904 12.9085 12.425 12.5587 11.9807 12.5597C11.5266 12.5797 11.1711 12.9605 11.1721 13.4203ZM12.0262 17.8471C11.572 17.8671 11.1968 17.5082 11.1761 17.0485C11.1761 16.5887 11.5305 16.2089 11.9847 16.1879C12.429 16.1869 12.7953 16.5367 12.8052 16.9855C12.8259 17.4463 12.4705 17.8261 12.0262 17.8471ZM7.10434 13.4553C7.12408 13.915 7.50025 14.2749 7.95442 14.2539C8.39872 14.2339 8.75317 13.8531 8.73244 13.3933C8.72257 12.9435 8.35725 12.5937 7.91197 12.5947C7.4578 12.6147 7.10335 12.9955 7.10434 13.4553ZM7.95837 17.8521C7.5042 17.8731 7.12902 17.5132 7.10828 17.0535C7.1073 16.5937 7.46274 16.2129 7.91691 16.1929C8.3612 16.1919 8.7275 16.5417 8.73738 16.9915C8.75811 17.4513 8.40366 17.8321 7.95837 17.8521Z" fill="#030229"/>
        </g>
    </symbol>
    <symbol id="category" viewBox="0 0 24 24">
        <g opacity="0.4">
            <path fill-rule="evenodd" clip-rule="evenodd" d="M4.53988 2H7.91988C9.32988 2 10.4599 3.15 10.4599 4.561V7.97C10.4599 9.39 9.32988 10.53 7.91988 10.53H4.53988C3.13988 10.53 1.99988 9.39 1.99988 7.97V4.561C1.99988 3.15 3.13988 2 4.53988 2ZM4.53988 13.4697H7.91988C9.32988 13.4697 10.4599 14.6107 10.4599 16.0307V19.4397C10.4599 20.8497 9.32988 21.9997 7.91988 21.9997H4.53988C3.13988 21.9997 1.99988 20.8497 1.99988 19.4397V16.0307C1.99988 14.6107 3.13988 13.4697 4.53988 13.4697ZM19.46 2H16.08C14.67 2 13.54 3.15 13.54 4.561V7.97C13.54 9.39 14.67 10.53 16.08 10.53H19.46C20.86 10.53 22 9.39 22 7.97V4.561C22 3.15 20.86 2 19.46 2ZM16.08 13.4697H19.46C20.86 13.4697 22 14.6107 22 16.0307V19.4397C22 20.8497 20.86 21.9997 19.46 21.9997H16.08C14.67 21.9997 13.54 20.8497 13.54 19.4397V16.0307C13.54 14.6107 14.67 13.4697 16.08 13.4697Z" fill="#030229"/>
        </g>
    </symbol>
    <symbol id="chart" viewBox="0 0 24 24">
        <g opacity="0.4">
            <path fill-rule="evenodd" clip-rule="evenodd" d="M7.33037 2.00049H16.6694C20.0704 2.00049 21.9904 3.92949 22.0004 7.33049V16.6705C22.0004 20.0705 20.0704 22.0005 16.6694 22.0005H7.33037C3.92937 22.0005 2.00037 20.0705 2.00037 16.6705V7.33049C2.00037 3.92949 3.92937 2.00049 7.33037 2.00049ZM12.0494 17.8605C12.4804 17.8605 12.8394 17.5405 12.8794 17.1105V6.92049C12.9194 6.61049 12.7704 6.29949 12.5004 6.13049C12.2194 5.96049 11.8794 5.96049 11.6104 6.13049C11.3394 6.29949 11.1904 6.61049 11.2194 6.92049V17.1105C11.2704 17.5405 11.6294 17.8605 12.0494 17.8605ZM16.6504 17.8605C17.0704 17.8605 17.4294 17.5405 17.4804 17.1105V13.8305C17.5094 13.5095 17.3604 13.2105 17.0894 13.0405C16.8204 12.8705 16.4804 12.8705 16.2004 13.0405C15.9294 13.2105 15.7804 13.5095 15.8204 13.8305V17.1105C15.8604 17.5405 16.2194 17.8605 16.6504 17.8605ZM8.21937 17.1105C8.17937 17.5405 7.82037 17.8605 7.38937 17.8605C6.95937 17.8605 6.59937 17.5405 6.56037 17.1105V10.2005C6.53037 9.88949 6.67937 9.58049 6.95037 9.41049C7.21937 9.24049 7.56037 9.24049 7.83037 9.41049C8.09937 9.58049 8.25037 9.88949 8.21937 10.2005V17.1105Z" fill="#030229"/>
        </g>
    </symbol>
    <symbol id="document" viewBox="0 0 24 24">
        <g opacity="0.4">
            <path fill-rule="evenodd" clip-rule="evenodd" d="M7.81 2H16.191C19.28 2 21 3.78 21 6.83V17.16C21 20.26 19.28 22 16.191 22H7.81C4.77 22 3 20.26 3 17.16V6.83C3 3.78 4.77 2 7.81 2ZM8.08 6.66V6.65H11.069C11.5 6.65 11.85 7 11.85 7.429C11.85 7.87 11.5 8.22 11.069 8.22H8.08C7.649 8.22 7.3 7.87 7.3 7.44C7.3 7.01 7.649 6.66 8.08 6.66ZM8.08 12.74H15.92C16.35 12.74 16.7 12.39 16.7 11.96C16.7 11.53 16.35 11.179 15.92 11.179H8.08C7.649 11.179 7.3 11.53 7.3 11.96C7.3 12.39 7.649 12.74 8.08 12.74ZM8.08 17.31H15.92C16.319 17.27 16.62 16.929 16.62 16.53C16.62 16.12 16.319 15.78 15.92 15.74H8.08C7.78 15.71 7.49 15.85 7.33 16.11C7.17 16.36 7.17 16.69 7.33 16.95C7.49 17.2 7.78 17.35 8.08 17.31Z" fill="#030229"/>
        </g>
    </symbol>
    <symbol id="notification" viewBox="0 0 24 24">
        <g opacity="0.4">
            <path fill-rule="evenodd" clip-rule="evenodd" d="M18.7071 8.79633C18.7071 10.0523 19.039 10.7925 19.7695 11.6456C20.3231 12.2741 20.5 13.0808 20.5 13.956C20.5 14.8302 20.2128 15.6601 19.6373 16.3339C18.884 17.1417 17.8215 17.6573 16.7372 17.747C15.1659 17.8809 13.5937 17.9937 12.0005 17.9937C10.4063 17.9937 8.83505 17.9263 7.26375 17.747C6.17846 17.6573 5.11602 17.1417 4.36367 16.3339C3.78822 15.6601 3.5 14.8302 3.5 13.956C3.5 13.0808 3.6779 12.2741 4.23049 11.6456C4.98384 10.7925 5.29392 10.0523 5.29392 8.79633V8.3703C5.29392 6.68834 5.71333 5.58852 6.577 4.51186C7.86106 2.9417 9.91935 2 11.9558 2H12.0452C14.1254 2 16.2502 2.98702 17.5125 4.62466C18.3314 5.67916 18.7071 6.73265 18.7071 8.3703V8.79633ZM9.07367 20.0608C9.07367 19.5573 9.53582 19.3266 9.96318 19.2279C10.4631 19.1222 13.5093 19.1222 14.0092 19.2279C14.4366 19.3266 14.8987 19.5573 14.8987 20.0608C14.8738 20.5402 14.5926 20.9653 14.204 21.2352C13.7001 21.628 13.1088 21.8767 12.4906 21.9664C12.1487 22.0107 11.8128 22.0117 11.4828 21.9664C10.8636 21.8767 10.2723 21.628 9.76938 21.2342C9.37978 20.9653 9.09852 20.5402 9.07367 20.0608Z" fill="#030229"/>
        </g>
    </symbol>
    <symbol id="setting" viewBox="0 0 24 24">
        <g opacity="0.4">
            <path fill-rule="evenodd" clip-rule="evenodd" d="M20.4022 13.58C20.7599 13.77 21.0358 14.07 21.23 14.37C21.6081 14.99 21.5775 15.75 21.2096 16.42L20.4942 17.62C20.1161 18.26 19.4109 18.66 18.6853 18.66C18.3277 18.66 17.9291 18.56 17.6021 18.36C17.3364 18.19 17.0298 18.13 16.7027 18.13C15.691 18.13 14.8428 18.96 14.8121 19.95C14.8121 21.1 13.8719 22 12.6967 22H11.3068C10.1213 22 9.18113 21.1 9.18113 19.95C9.16069 18.96 8.31247 18.13 7.30073 18.13C6.96348 18.13 6.6569 18.19 6.40141 18.36C6.07438 18.56 5.6656 18.66 5.31813 18.66C4.58232 18.66 3.87717 18.26 3.49905 17.62L2.7939 16.42C2.41577 15.77 2.39533 14.99 2.77346 14.37C2.93697 14.07 3.24356 13.77 3.59102 13.58C3.87717 13.44 4.06112 13.21 4.23486 12.94C4.74584 12.08 4.43925 10.95 3.57059 10.44C2.55885 9.87 2.23182 8.6 2.81434 7.61L3.49905 6.43C4.09178 5.44 5.35901 5.09 6.38097 5.67C7.27007 6.15 8.42488 5.83 8.94608 4.98C9.10959 4.7 9.20157 4.4 9.18113 4.1C9.16069 3.71 9.27311 3.34 9.46728 3.04C9.8454 2.42 10.5301 2.02 11.2761 2H12.7171C13.4734 2 14.1581 2.42 14.5362 3.04C14.7201 3.34 14.8428 3.71 14.8121 4.1C14.7917 4.4 14.8837 4.7 15.0472 4.98C15.5684 5.83 16.7232 6.15 17.6225 5.67C18.6342 5.09 19.9117 5.44 20.4942 6.43L21.1789 7.61C21.7716 8.6 21.4446 9.87 20.4227 10.44C19.554 10.95 19.2474 12.08 19.7686 12.94C19.9321 13.21 20.1161 13.44 20.4022 13.58ZM9.10959 12.01C9.10959 13.58 10.4075 14.83 12.012 14.83C13.6164 14.83 14.8837 13.58 14.8837 12.01C14.8837 10.44 13.6164 9.18 12.012 9.18C10.4075 9.18 9.10959 10.44 9.10959 12.01Z" fill="#030229"/>
        </g>
    </symbol>
    <symbol id="ticket">
        <g opacity="0.4">
            <path fill-rule="evenodd" clip-rule="evenodd" d="M21.7872 10.539C21.6518 10.6706 21.4681 10.7457 21.2747 10.7457C20.559 10.7457 19.9787 11.3095 19.9787 11.9953C19.9787 12.6858 20.5522 13.2467 21.2611 13.2543C21.6605 13.258 22 13.5286 22 13.9166V16.3265C22 18.3549 20.3075 20 18.2186 20H15.0658C14.7398 20 14.4758 19.7435 14.4758 19.4269V17.3975C14.4758 17.0029 14.1567 16.6929 13.7505 16.6929C13.354 16.6929 13.0251 17.0029 13.0251 17.3975V19.4269C13.0251 19.7435 12.7611 20 12.4362 20H5.78143C3.70213 20 2 18.3558 2 16.3265V13.9166C2 13.5286 2.33946 13.258 2.73888 13.2543C3.44874 13.2467 4.02128 12.6858 4.02128 11.9953C4.02128 11.3282 3.46035 10.8209 2.72534 10.8209C2.53191 10.8209 2.34816 10.7457 2.21277 10.6142C2.07737 10.4827 2 10.3042 2 10.1163V7.68291C2 5.65731 3.706 4 5.7911 4H12.4362C12.7611 4 13.0251 4.25649 13.0251 4.57311V6.97827C13.0251 7.36348 13.354 7.68291 13.7505 7.68291C14.1567 7.68291 14.4758 7.36348 14.4758 6.97827V4.57311C14.4758 4.25649 14.7398 4 15.0658 4H18.2186C20.3075 4 22 5.64416 22 7.67352V10.0411C22 10.229 21.9226 10.4075 21.7872 10.539ZM13.7505 14.8702C14.1567 14.8702 14.4758 14.5508 14.4758 14.1656V10.4075C14.4758 10.0223 14.1567 9.70288 13.7505 9.70288C13.354 9.70288 13.0251 10.0223 13.0251 10.4075V14.1656C13.0251 14.5508 13.354 14.8702 13.7505 14.8702Z" fill="#030229"/>
        </g>
    </symbol>
    <symbol id="logout" viewBox="0 0 18 18">
        <g opacity="0.4">
            <path fill-rule="evenodd" clip-rule="evenodd" d="M6.57946 8.35841C6.21487 8.35841 5.9266 8.64175 5.9266 9.00008C5.9266 9.35008 6.21487 9.64175 6.57946 9.64175H11.6667V13.6251C11.6667 15.6667 9.97941 17.3334 7.89365 17.3334H3.76453C1.68726 17.3334 0 15.6751 0 13.6334V4.37508C0 2.32508 1.69574 0.666748 3.77301 0.666748H7.91061C9.97941 0.666748 11.6667 2.32508 11.6667 4.36675V8.35841H6.57946ZM14.6919 6.11692L17.1252 8.54192C17.2502 8.66692 17.3169 8.82525 17.3169 9.00025C17.3169 9.16692 17.2502 9.33359 17.1252 9.45025L14.6919 11.8753C14.5669 12.0003 14.4002 12.0669 14.2419 12.0669C14.0752 12.0669 13.9085 12.0003 13.7835 11.8753C13.5335 11.6253 13.5335 11.2169 13.7835 10.9669L15.1169 9.64192H11.6669V8.35859H15.1169L13.7835 7.03359C13.5335 6.78359 13.5335 6.37525 13.7835 6.12525C14.0335 5.86692 14.4419 5.86692 14.6919 6.11692Z" fill="#030229"/>
        </g>
    </symbol>
    <symbol id="arrow" viewBox="0 0 14 8">
        <g opacity="0.4">
            <path fill-rule="evenodd" clip-rule="evenodd" d="M13 1L7 7L1 1" stroke="#030229" fill="none"/>
        </g>
    </symbol>
    <symbol id="user" viewBox="0 0 24 24" fill="none">
        <g opacity="0.4">
            <path d="M19.6515 19.4054C20.2043 19.2902 20.5336 18.7117 20.2589 18.2183C19.6533 17.1307 18.6993 16.1749 17.4788 15.4465C15.907 14.5085 13.9812 14 12 14C10.0188 14 8.09292 14.5085 6.52112 15.4465C5.30069 16.1749 4.34666 17.1307 3.74108 18.2183C3.46638 18.7117 3.79562 19.2902 4.34843 19.4054V19.4054C9.39524 20.4572 14.6047 20.4572 19.6515 19.4054V19.4054Z" fill="#222222"/>
            <circle cx="12" cy="8" r="5" fill="#030229"/>
        </g>
    </symbol>
    <symbol id="users" viewBox="0 0 24 24" fill="none">
        <g opacity="0.4">
        <circle cx="12" cy="9" r="1.5" stroke="#030229" stroke-linecap="round"/>
        <path d="M15.701 8.25C15.8999 7.90547 16.2275 7.65408 16.6118 7.55111C16.996 7.44815 17.4055 7.50205 17.75 7.70096C18.0945 7.89987 18.3459 8.2275 18.4489 8.61177C18.5519 8.99604 18.498 9.40547 18.299 9.75C18.1001 10.0945 17.7725 10.3459 17.3882 10.4489C17.004 10.5519 16.5945 10.498 16.25 10.299C15.9055 10.1001 15.6541 9.7725 15.5511 9.38823C15.4481 9.00396 15.502 8.59453 15.701 8.25L15.701 8.25Z" stroke="#030229"/>
        <path d="M5.70096 8.25C5.89987 7.90547 6.2275 7.65408 6.61177 7.55111C6.99604 7.44815 7.40547 7.50205 7.75 7.70096C8.09453 7.89987 8.34592 8.2275 8.44889 8.61177C8.55185 8.99604 8.49795 9.40547 8.29904 9.75C8.10013 10.0945 7.7725 10.3459 7.38823 10.4489C7.00396 10.5519 6.59453 10.498 6.25 10.299C5.90547 10.1001 5.65408 9.7725 5.55111 9.38823C5.44815 9.00396 5.50205 8.59453 5.70096 8.25L5.70096 8.25Z" stroke="#030229"/>
        <path d="M20.3639 15.5122L20.8501 15.3957L20.3639 15.5122ZM14.1 13.1854L13.8093 12.7786L13.2769 13.1589L13.7838 13.5727L14.1 13.1854ZM15.3804 15.5097L14.8911 15.6125L15.3804 15.5097ZM19.4999 16H14.5V17H19.4999V16ZM19.8776 15.6288C19.9012 15.7271 19.8757 15.8068 19.8169 15.8717C19.7527 15.9424 19.6412 16 19.4999 16V17C20.2996 17 21.0709 16.3171 20.8501 15.3957L19.8776 15.6288ZM16.5 13C17.726 13 18.4895 13.4087 18.9822 13.9118C19.4884 14.4286 19.7475 15.0859 19.8776 15.6288L20.8501 15.3957C20.6963 14.7541 20.3754 13.9052 19.6966 13.2121C19.0043 12.5051 17.9778 12 16.5 12V13ZM14.3906 13.5922C14.8685 13.2508 15.54 13 16.5 13V12C15.3544 12 14.4745 12.3034 13.8093 12.7786L14.3906 13.5922ZM13.7838 13.5727C14.4368 14.1059 14.7483 14.9336 14.8911 15.6125L15.8697 15.4068C15.7084 14.6398 15.3299 13.5441 14.4162 12.7981L13.7838 13.5727ZM14.8911 15.6125C14.9127 15.7155 14.8843 15.801 14.8215 15.8694C14.7542 15.9427 14.641 16 14.5 16V17C15.3038 17 16.0615 16.3194 15.8697 15.4068L14.8911 15.6125Z" fill="#030229"/>
        <path d="M9.90001 13.1854L10.2162 13.5727L10.7231 13.1589L10.1907 12.7785L9.90001 13.1854ZM3.63614 15.5122L4.12237 15.6288L3.63614 15.5122ZM8.61961 15.5097L8.1303 15.4068L8.61961 15.5097ZM7.50004 13C8.45997 13 9.13146 13.2508 9.60936 13.5922L10.1907 12.7785C9.5255 12.3033 8.64563 12 7.50004 12V13ZM4.12237 15.6288C4.25249 15.0859 4.51165 14.4286 5.01783 13.9118C5.51048 13.4087 6.27401 13 7.50004 13V12C6.02223 12 4.99575 12.5051 4.30339 13.2121C3.62456 13.9052 3.30369 14.7541 3.14991 15.3957L4.12237 15.6288ZM4.50005 16C4.3588 16 4.24729 15.9424 4.18312 15.8717C4.12432 15.8068 4.09879 15.7271 4.12237 15.6288L3.14991 15.3957C2.92906 16.3171 3.70041 17 4.50005 17V16ZM9.5 16H4.50005V17H9.5V16ZM9.5 16C9.35899 16 9.24574 15.9427 9.17843 15.8694C9.11567 15.801 9.08727 15.7155 9.10892 15.6125L8.1303 15.4068C7.93849 16.3194 8.69612 17 9.5 17V16ZM9.10892 15.6125C9.25163 14.9336 9.56317 14.1059 10.2162 13.5727L9.58379 12.7981C8.67006 13.5441 8.29153 14.6398 8.1303 15.4068L9.10892 15.6125Z" fill="#030229"/>
        <path d="M12 12.5C14.3642 12.5 15.1314 14.3251 15.3804 15.5097C15.494 16.0501 15.0523 16.5 14.5 16.5H9.5C8.94772 16.5 8.50601 16.0501 8.61961 15.5097C8.86859 14.3251 9.63581 12.5 12 12.5Z" stroke="#030229" stroke-linecap="round"/>
        <path d="M18.5 21.5H20C20.8284 21.5 21.5 20.8284 21.5 20V18.5" stroke="#030229" stroke-linecap="round"/>
        <path d="M18.5 2.5H20C20.8284 2.5 21.5 3.17157 21.5 4V5.5" stroke="#030229" stroke-linecap="round"/>
        <path d="M5.5 21.5H4C3.17157 21.5 2.5 20.8284 2.5 20V18.5" stroke="#030229" stroke-linecap="round"/>
        <path d="M5.5 2.5H4C3.17157 2.5 2.5 3.17157 2.5 4V5.5" stroke="#030229" stroke-linecap="round"/>
        </g>
    </symbol>
    <symbol id="file" viewBox="0 0 24 24" fill="none">
        <g opacity="0.4">
            <path fill-rule="evenodd" clip-rule="evenodd" d="M12 2V7L12 7.05441C11.9999 7.47848 11.9998 7.8906 12.0455 8.23052C12.097 8.61372 12.2226 9.051 12.5858 9.41421C12.949 9.77743 13.3863 9.90295 13.7695 9.95447C14.1094 10.0002 14.5215 10.0001 14.9456 10H14.9456H14.9456H14.9456L15 10H20V16C20 18.8284 20 20.2426 19.1213 21.1213C18.2426 22 16.8284 22 14 22H10C7.17157 22 5.75736 22 4.87868 21.1213C4 20.2426 4 18.8284 4 16V8C4 5.17157 4 3.75736 4.87868 2.87868C5.75736 2 7.17157 2 10 2H12ZM14 2.00462V7C14 7.49967 14.0021 7.77383 14.0277 7.96402L14.0287 7.97131L14.036 7.97231C14.2262 7.99788 14.5003 8 15 8H19.9954C19.9852 7.58836 19.9525 7.31595 19.8478 7.06306C19.6955 6.69552 19.4065 6.40649 18.8284 5.82843L16.1716 3.17157C15.5935 2.59351 15.3045 2.30448 14.9369 2.15224C14.684 2.04749 14.4116 2.01481 14 2.00462ZM8 13C8 12.4477 8.44772 12 9 12L15 12C15.5523 12 16 12.4477 16 13C16 13.5523 15.5523 14 15 14L9 14C8.44772 14 8 13.5523 8 13ZM9 16C8.44772 16 8 16.4477 8 17C8 17.5523 8.44772 18 9 18H13C13.5523 18 14 17.5523 14 17C14 16.4477 13.5523 16 13 16H9Z" fill="#030229"/>
        </g>
    </symbol>
    <symbol id="sun" viewBox="0 0 24 24" fill="none">
        <g opacity="0.4">
            <circle cx="12" cy="12" r="3.4" fill="#7E869E" fill-opacity="0.25" stroke="#222222" stroke-width="1.2"/>
            <path d="M12 5V3" stroke="#222222" stroke-width="1.2" stroke-linecap="round"/>
            <path d="M12 21V19" stroke="#222222" stroke-width="1.2" stroke-linecap="round"/>
            <path d="M16.9498 7.05026L18.364 5.63605" stroke="#222222" stroke-width="1.2" stroke-linecap="round"/>
            <path d="M5.63608 18.364L7.05029 16.9497" stroke="#222222" stroke-width="1.2" stroke-linecap="round"/>
            <path d="M19 12L21 12" stroke="#222222" stroke-width="1.2" stroke-linecap="round"/>
            <path d="M3 12L5 12" stroke="#222222" stroke-width="1.2" stroke-linecap="round"/>
            <path d="M16.9498 16.9497L18.364 18.364" stroke="#222222" stroke-width="1.2" stroke-linecap="round"/>
            <path d="M5.63608 5.63605L7.05029 7.05026" stroke="#222222" stroke-width="1.2" stroke-linecap="round"/>
        </g>
    </symbol>
</svg>