<svg viewBox="0 0 92 92" fill="none" xmlns="http://www.w3.org/2000/svg">
<path fill-rule="evenodd" clip-rule="evenodd" d="M91.9748 47.5366C91.9916 47.0265 92 46.5142 92 46C92 20.5949 71.4051 0 46 0C21.8569 0 2.05802 18.5996 0.150532 42.2515L25.2158 54.5056C26.3308 52.1945 28.6962 50.5999 31.434 50.5999C33.8177 50.5999 35.9191 51.8086 37.1586 53.6466L56.8662 37.3879C56.779 36.9499 56.7333 36.4971 56.7333 36.0335C56.7333 32.2227 59.8225 29.1335 63.6333 29.1335C67.4441 29.1335 70.5333 32.2227 70.5333 36.0335C70.5333 36.2011 70.5273 36.3673 70.5156 36.5319L91.9748 47.5366ZM38.0427 55.51L57.5966 39.378C58.7739 41.4985 61.036 42.9335 63.6333 42.9335C66.5574 42.9335 69.0566 41.1146 70.0613 38.5466L91.8517 49.7211C89.9573 73.3861 70.1524 92 46 92C20.5949 92 0 71.4051 0 46C0 45.4702 0.00895498 44.9426 0.0267218 44.4172L24.6152 56.4382C24.5618 56.7843 24.534 57.1389 24.534 57.4999C24.534 61.3107 27.6233 64.3999 31.434 64.3999C35.2448 64.3999 38.334 61.3107 38.334 57.4999C38.334 56.8081 38.2322 56.1401 38.0427 55.51Z" fill="#605BFF"/>
<path fill-rule="evenodd" clip-rule="evenodd" d="M91.9748 47.5366C91.9916 47.0265 92 46.5142 92 46C92 20.5949 71.4051 0 46 0C21.8569 0 2.05802 18.5996 0.150532 42.2515L25.2158 54.5056C26.3308 52.1945 28.6962 50.5999 31.434 50.5999C33.8177 50.5999 35.9191 51.8086 37.1586 53.6466L56.8662 37.3879C56.779 36.9499 56.7333 36.4971 56.7333 36.0335C56.7333 32.2227 59.8225 29.1335 63.6333 29.1335C67.4441 29.1335 70.5333 32.2227 70.5333 36.0335C70.5333 36.2011 70.5273 36.3673 70.5156 36.5319L91.9748 47.5366ZM38.0427 55.51L57.5966 39.378C58.7739 41.4985 61.036 42.9335 63.6333 42.9335C66.5574 42.9335 69.0566 41.1146 70.0613 38.5466L91.8517 49.7211C89.9573 73.3861 70.1524 92 46 92C20.5949 92 0 71.4051 0 46C0 45.4702 0.00895498 44.9426 0.0267218 44.4172L24.6152 56.4382C24.5618 56.7843 24.534 57.1389 24.534 57.4999C24.534 61.3107 27.6233 64.3999 31.434 64.3999C35.2448 64.3999 38.334 61.3107 38.334 57.4999C38.334 56.8081 38.2322 56.1401 38.0427 55.51Z" fill="#605BFF"/>
</svg>
