<svg width="111" height="42" viewBox="0 0 111 42" fill="none" xmlns="http://www.w3.org/2000/svg">
<path fill-rule="evenodd" clip-rule="evenodd" d="M41.9998 21.0966L42 21C42 9.40202 32.598 0 21 0C10.1757 0 1.26409 8.18954 0.123364 18.7105L11.79 24.4142C12.3617 23.6184 13.2953 23.1 14.35 23.1C15.2427 23.1 16.0487 23.4714 16.6219 24.068L25.9002 16.4134C25.9198 14.6906 27.3225 13.3 29.05 13.3C30.6572 13.3 31.9833 14.5037 32.1759 16.0587L41.9998 21.0966ZM17.4857 25.9482L26.5994 18.4294C27.1769 19.1434 28.0601 19.6 29.05 19.6C30.1912 19.6 31.1907 18.9931 31.7433 18.0845L41.8775 23.2815C40.7404 33.8063 31.8271 42 21 42C9.40202 42 0 32.598 0 21C0 20.9588 0.000118391 20.9177 0.000354851 20.8766L11.2016 26.3528C11.2559 28.0449 12.6447 29.4 14.35 29.4C16.0897 29.4 17.5 27.9897 17.5 26.25C17.5 26.1482 17.4952 26.0475 17.4857 25.9482Z" fill="#605BFF"/>
<path fill-rule="evenodd" clip-rule="evenodd" d="M41.9998 21.0966L42 21C42 9.40202 32.598 0 21 0C10.1757 0 1.26409 8.18954 0.123364 18.7105L11.79 24.4142C12.3617 23.6184 13.2953 23.1 14.35 23.1C15.2427 23.1 16.0487 23.4714 16.6219 24.068L25.9002 16.4134C25.9198 14.6906 27.3225 13.3 29.05 13.3C30.6572 13.3 31.9833 14.5037 32.1759 16.0587L41.9998 21.0966ZM17.4857 25.9482L26.5994 18.4294C27.1769 19.1434 28.0601 19.6 29.05 19.6C30.1912 19.6 31.1907 18.9931 31.7433 18.0845L41.8775 23.2815C40.7404 33.8063 31.8271 42 21 42C9.40202 42 0 32.598 0 21C0 20.9588 0.000118391 20.9177 0.000354851 20.8766L11.2016 26.3528C11.2559 28.0449 12.6447 29.4 14.35 29.4C16.0897 29.4 17.5 27.9897 17.5 26.25C17.5 26.1482 17.4952 26.0475 17.4857 25.9482Z" fill="#605BFF"/>
<path d="M60.312 29C59.88 29 59.544 28.888 59.304 28.664C59.08 28.424 58.968 28.088 58.968 27.656V13.424C58.968 12.992 59.08 12.664 59.304 12.44C59.544 12.2 59.88 12.08 60.312 12.08H66.024C67.192 12.08 68.184 12.256 69 12.608C69.832 12.96 70.464 13.464 70.896 14.12C71.344 14.776 71.568 15.568 71.568 16.496C71.568 17.52 71.264 18.384 70.656 19.088C70.048 19.792 69.224 20.264 68.184 20.504V20.144C69.368 20.304 70.296 20.752 70.968 21.488C71.64 22.208 71.976 23.152 71.976 24.32C71.976 25.824 71.48 26.984 70.488 27.8C69.496 28.6 68.104 29 66.312 29H60.312ZM61.368 27.08H66.024C67.224 27.08 68.112 26.848 68.688 26.384C69.264 25.904 69.552 25.184 69.552 24.224C69.552 23.264 69.264 22.552 68.688 22.088C68.112 21.624 67.224 21.392 66.024 21.392H61.368V27.08ZM61.368 19.472H65.64C66.792 19.472 67.664 19.24 68.256 18.776C68.848 18.312 69.144 17.632 69.144 16.736C69.144 15.84 68.848 15.16 68.256 14.696C67.664 14.232 66.792 14 65.64 14H61.368V19.472ZM78.8074 29.216C77.9914 29.216 77.2554 29.056 76.5994 28.736C75.9594 28.416 75.4554 27.984 75.0874 27.44C74.7194 26.896 74.5354 26.28 74.5354 25.592C74.5354 24.728 74.7514 24.048 75.1834 23.552C75.6314 23.04 76.3594 22.68 77.3674 22.472C78.3914 22.248 79.7674 22.136 81.4954 22.136H82.6234V23.624H81.5194C80.3674 23.624 79.4554 23.68 78.7834 23.792C78.1114 23.904 77.6314 24.096 77.3434 24.368C77.0714 24.624 76.9354 24.984 76.9354 25.448C76.9354 26.056 77.1434 26.552 77.5594 26.936C77.9754 27.304 78.5514 27.488 79.2874 27.488C79.8794 27.488 80.3994 27.352 80.8474 27.08C81.2954 26.792 81.6474 26.408 81.9034 25.928C82.1754 25.448 82.3114 24.896 82.3114 24.272V21.512C82.3114 20.6 82.1194 19.944 81.7354 19.544C81.3514 19.144 80.7194 18.944 79.8394 18.944C79.3274 18.944 78.7914 19.008 78.2314 19.136C77.6874 19.264 77.1194 19.48 76.5274 19.784C76.2554 19.912 76.0234 19.952 75.8314 19.904C75.6394 19.856 75.4874 19.752 75.3754 19.592C75.2634 19.416 75.1994 19.232 75.1834 19.04C75.1834 18.832 75.2314 18.632 75.3274 18.44C75.4394 18.248 75.6234 18.104 75.8794 18.008C76.5834 17.672 77.2794 17.432 77.9674 17.288C78.6554 17.144 79.3034 17.072 79.9114 17.072C80.9834 17.072 81.8634 17.24 82.5514 17.576C83.2554 17.912 83.7754 18.424 84.1114 19.112C84.4474 19.8 84.6154 20.688 84.6154 21.776V27.944C84.6154 28.328 84.5194 28.632 84.3274 28.856C84.1354 29.064 83.8554 29.168 83.4874 29.168C83.1354 29.168 82.8554 29.064 82.6474 28.856C82.4394 28.632 82.3354 28.328 82.3354 27.944V26.384H82.5514C82.4234 26.976 82.1834 27.488 81.8314 27.92C81.4954 28.336 81.0714 28.656 80.5594 28.88C80.0474 29.104 79.4634 29.216 78.8074 29.216ZM92.058 29.216C91.354 29.216 90.626 29.136 89.874 28.976C89.138 28.816 88.458 28.544 87.834 28.16C87.626 28.016 87.482 27.856 87.402 27.68C87.322 27.504 87.29 27.328 87.306 27.152C87.338 26.96 87.41 26.8 87.522 26.672C87.65 26.528 87.802 26.44 87.978 26.408C88.17 26.376 88.37 26.416 88.578 26.528C89.202 26.88 89.802 27.128 90.378 27.272C90.954 27.4 91.522 27.464 92.082 27.464C92.93 27.464 93.57 27.312 94.002 27.008C94.434 26.704 94.65 26.296 94.65 25.784C94.65 25.368 94.506 25.048 94.218 24.824C93.93 24.584 93.498 24.4 92.922 24.272L90.642 23.816C89.65 23.608 88.898 23.24 88.386 22.712C87.874 22.184 87.618 21.512 87.618 20.696C87.618 19.96 87.818 19.32 88.218 18.776C88.618 18.232 89.178 17.816 89.898 17.528C90.618 17.224 91.45 17.072 92.394 17.072C93.098 17.072 93.762 17.16 94.386 17.336C95.01 17.512 95.586 17.776 96.114 18.128C96.322 18.24 96.458 18.392 96.522 18.584C96.586 18.76 96.594 18.936 96.546 19.112C96.514 19.288 96.434 19.448 96.306 19.592C96.178 19.72 96.018 19.8 95.826 19.832C95.65 19.848 95.45 19.8 95.226 19.688C94.746 19.384 94.266 19.168 93.786 19.04C93.322 18.912 92.858 18.848 92.394 18.848C91.546 18.848 90.906 19.008 90.474 19.328C90.058 19.632 89.85 20.048 89.85 20.576C89.85 20.976 89.978 21.304 90.234 21.56C90.49 21.816 90.89 22 91.434 22.112L93.714 22.568C94.754 22.776 95.538 23.128 96.066 23.624C96.61 24.12 96.882 24.792 96.882 25.64C96.882 26.744 96.442 27.616 95.562 28.256C94.682 28.896 93.514 29.216 92.058 29.216ZM105.075 29.216C103.795 29.216 102.691 28.976 101.763 28.496C100.851 28 100.139 27.304 99.627 26.408C99.131 25.496 98.883 24.416 98.883 23.168C98.883 21.952 99.131 20.888 99.627 19.976C100.123 19.064 100.803 18.352 101.667 17.84C102.531 17.328 103.515 17.072 104.619 17.072C105.435 17.072 106.163 17.208 106.803 17.48C107.443 17.736 107.987 18.12 108.435 18.632C108.899 19.128 109.243 19.736 109.467 20.456C109.707 21.176 109.827 21.984 109.827 22.88C109.827 23.152 109.747 23.36 109.587 23.504C109.427 23.632 109.187 23.696 108.867 23.696H100.803V22.208H108.195L107.787 22.544C107.787 21.744 107.667 21.064 107.427 20.504C107.203 19.944 106.859 19.52 106.395 19.232C105.947 18.928 105.387 18.776 104.715 18.776C103.963 18.776 103.323 18.952 102.795 19.304C102.283 19.656 101.891 20.144 101.619 20.768C101.347 21.392 101.211 22.12 101.211 22.952V23.096C101.211 24.504 101.539 25.568 102.195 26.288C102.867 26.992 103.835 27.344 105.099 27.344C105.579 27.344 106.083 27.28 106.611 27.152C107.155 27.024 107.667 26.808 108.147 26.504C108.419 26.344 108.659 26.272 108.867 26.288C109.091 26.304 109.267 26.376 109.395 26.504C109.539 26.632 109.627 26.792 109.659 26.984C109.691 27.176 109.659 27.376 109.563 27.584C109.467 27.776 109.299 27.952 109.059 28.112C108.515 28.48 107.883 28.76 107.163 28.952C106.443 29.128 105.747 29.216 105.075 29.216Z" fill="#030229"/>
</svg>
